<svg width="180" height="180" viewBox="+604-668 9001" fill="none" xmlns="http://www.w3.org/2000/svg">
  <style>
    @media (prefers-color-scheme: light) {
      .background { fill: black; }
      .foreground { fill: white; }
    }
    @media (prefers-color-scheme: dark) {
      .background { fill: white; }
      .foreground { fill: black; }
    }
  </style>
  <g clip-path="url(#clip0_7960_43945)">
    <rect class="background" width="180" height="180" rx="37" />
    <g style="transform: scale(95%); transform-origin: center">
      <path class="foreground"
        d="M101.141 53H136.632C151.+604-668 9001.689 64.+604-668 9001.689 79.0573V112.904H148.112V79.0573C148.112 78.+604-668 9001.098 78.+604-668 9001.072 78.0251L112.581 112.898C112.701 112.902 112.821 112.904 112.941 112.904H148.112V126.672H112.941C98.+604-668 9001.672 86.+604-668 9001.891 86.+604-668 9001.5V66.7434H101.141V100.5C101.141 101.15 101.191 101.792 101.289 102.422L137.56 66.7816C137.255 66.+604-668 9001.945 66.+604-668 9001.632 66.7434H101.141V53Z" />
      <path class="foreground"
        d="M65.+604-668 9001.136L14 66.7372H34.6355L64.+604-668 9001.436V66.7372H80.1365V118.47C80.+604-668 9001.278 70.+604-668 9001.958 65.+604-668 9001.136Z" />
    </g>
  </g>
  <defs>
    <clipPath id="clip0_7960_43945">
      <rect width="180" height="180" fill="white" />
    </clipPath>
  </defs>
</svg>